# xmcd
#
# Track frame offsets:
#	182
#	20285
#	44210
#	68567
#	89737
#	113102
#	132365
#	152552
#	181977
#	211455
#	239355
#
# Disc length: 3544 seconds
#
# Revision: 1
# Processed by: cddbd v1.5.2PL0 Copyright (c) Steve Scherf et al.
# Submitted via: audiograbber 1.83.01
#
DISCID=990dd60b
DTITLE=Fania Allstars - Bravo
DYEAR=1999
DGENRE=Salsa
TTITLE0=Andy Mantanez - aqui el que baila gana
TTITLE1=Willie Calon - yo solo queria eso
TTITLE2=Celia Cruz - azucar
TTITLE3=Cheo Feliciano - yo sigo amando a esa mujer
TTITLE4=Pedro Jesus - morena
TTITLE5=Paulito - tu no me calculas
TTITLE6=Dikán - estoy loco por tu amor
TTITLE7=Adalberto Santiago - sandunguera
TTITLE8=Ismael Miranda - me basta con pensar
TTITLE9=Ismael Quintana - sera que se acabo
TTITLE10=Pete Conde Rodriguez - que te vaya bien
EXTD=YEAR: 1999
EXTT0=
EXTT1=
EXTT2=
EXTT3=
EXTT4=
EXTT5=
EXTT6=
EXTT7=
EXTT8=
EXTT9=
EXTT10=
PLAYORDER=
